# xmcd CD database file
#
# Track frame offsets:
#	150
#	11515
#	24642
#	35257
#	48869
#	62075
#	72576
#	85051
#	100052
#	110860
#	123907
#	134647
#	146922
#	158002
#	168247
#	180017
#	191860
#	201170
#	212683
#	225008
#	238216
#	251641
#	263974
#	273004
#	284604
#	296392
#
# Disc length: 4152 seconds
#
# Revision: 0
# Processed by: cddbd v1.5.1PL2 Copyright (c) Steve Scherf et al.
# Submitted via: Feurio! 1.68 - http://www.feurio.com
#
DISCID=7810361a
DTITLE=Various Artist - The Blues 5
DYEAR=1900
DGENRE=Blues
TTITLE0=Elmore James - Rollin' and Tumblin'
TTITLE1=Arthur "Big Boy" Crudup - Coal Black Mare
TTITLE2=John Lee Hooker - Send Me Your Pillow
TTITLE3=Jimmy Reed - Things Ain't What They Used to Be
TTITLE4=Memphis Slim - Ramble this Highway
TTITLE5=Huey "Piano" Smith and The Clowns - Rockin' Pneumonia and the Boogie 
TTITLE5=Woogie Flu
TTITLE6=Little W. Littlefield and Little Laura Wiggins - Ain't a Better Story 
TTITLE6=Told
TTITLE7=B.B. King - B.B.'s Boogie
TTITLE8=Etta James - Good Rockin' Daddy
TTITLE9=John Lee Hooker - Rock House Boogie
TTITLE10=Shirley and Lee - Let the Good Times Roll
TTITLE11=Pee Wee Crayton - Bop Hop
TTITLE12=Huey "Piano" Smith and The Clowns - Don't You Know Yokomo
TTITLE13=The Queens - Oop Shoop
TTITLE14=Jimmy McCracklin and His Blues Blasters - Reelin' and Rockin'
TTITLE15=Jimmy Witherspoon - Who's Been Jivin' You
TTITLE16=Ike Turner's Kings of Rhythm featuring Lonnie "The Cat" - The Road I 
TTITLE16=Travel
TTITLE17=Howlin' Wolf - Moanin' at Midnight
TTITLE18=Earl King - Is Everything Alright
TTITLE19=The Cadets - Love Bandit
TTITLE20=Elmore James - Goodbye Baby
TTITLE21=Rosco Gordon - No More Doggin'
TTITLE22=Ike Turner's Kings of Rhythm featuring Dennis Binder - Early Times
TTITLE23=Joe and Ann - Gee Baby
TTITLE24=Joe Turner - Kansas City Blues
TTITLE25=The Blues Brothers - Expressway to Your Heart
EXTD=
EXTT0=
EXTT1=
EXTT2=
EXTT3=
EXTT4=
EXTT5=
EXTT6=
EXTT7=
EXTT8=
EXTT9=
EXTT10=
EXTT11=
EXTT12=
EXTT13=
EXTT14=
EXTT15=
EXTT16=
EXTT17=
EXTT18=
EXTT19=
EXTT20=
EXTT21=
EXTT22=
EXTT23=
EXTT24=
EXTT25=
PLAYORDER=
